<?xml version="1.0" standalone="no"?>
<!DOCTYPE svg PUBLIC "-//W3C//DTD SVG 20010904//EN"
 "http://www.w3.org/TR/2001/REC-SVG-20010904/DTD/svg10.dtd">
<svg version="1.0" xmlns="http://www.w3.org/2000/svg"
 width="512.000000pt" height="512.000000pt" viewBox="0 0 512.000000 512.000000"
 preserveAspectRatio="xMidYMid meet">
<metadata>
Created by potrace 1.14, written by Peter Selinger 2001-2017
</metadata>
<g transform="translate(0.000000,512.000000) scale(0.100000,-0.100000)"
fill="#000000" stroke="none">
<path d="M2402 4720 c-89 -24 -147 -49 -209 -91 -184 -126 -318 -340 -398
-634 -27 -101 -34 -133 -41 -190 -2 -22 -7 -46 -10 -54 -2 -8 -7 -55 -10 -105
-3 -50 -7 -97 -9 -103 -3 -10 -108 -13 -472 -13 -257 0 -478 -2 -491 -4 -48
-10 -94 -49 -117 -98 -23 -51 -25 -79 -11 -238 2 -25 7 -83 10 -130 4 -47 8
-110 11 -140 2 -30 6 -86 9 -125 3 -38 8 -108 11 -155 2 -47 7 -105 9 -130 3
-25 8 -88 11 -140 4 -52 8 -117 10 -145 2 -27 7 -90 10 -140 3 -49 7 -110 10
-135 2 -25 6 -81 9 -125 4 -44 9 -111 11 -150 8 -106 14 -192 20 -275 2 -41 7
-104 10 -140 13 -164 26 -341 30 -410 10 -181 106 -358 235 -433 102 -59 37
-57 1539 -57 l1376 1 73 25 c121 41 203 116 262 238 47 100 62 175 75 366 3
47 8 112 10 145 10 120 15 192 20 275 4 47 8 105 10 130 2 25 6 90 10 145 3
55 8 118 10 140 2 22 7 81 10 130 4 50 8 108 10 130 2 22 7 83 10 135 4 52 8
113 10 135 4 59 16 222 20 283 6 89 15 204 20 277 3 39 8 97 10 130 3 33 8 96
12 140 18 206 0 276 -85 323 l-43 24 -484 0 c-358 0 -485 3 -486 12 -3 64 -18
210 -24 236 -1 3 -5 25 -9 50 -14 80 -55 226 -76 275 -5 11 -21 48 -34 82
-110 267 -297 460 -511 525 -99 30 -273 34 -373 8z m243 -205 c73 -10 173 -53
211 -90 7 -6 25 -22 41 -36 124 -104 254 -408 287 -674 3 -22 8 -62 12 -90 4
-27 7 -59 8 -70 1 -20 -6 -20 -626 -22 l-627 -2 4 62 c3 59 13 138 21 182 2
11 7 36 10 55 22 131 93 324 156 425 51 81 159 182 233 217 59 27 195 59 220
52 6 -2 28 -6 50 -9z m145 -1530 c62 -11 183 -55 250 -91 108 -58 133 -102 86
-149 -30 -29 -59 -26 -131 15 -53 30 -210 87 -267 95 -79 13 -206 12 -258 -2
-175 -45 -298 -178 -306 -331 -7 -144 88 -261 290 -355 33 -15 131 -53 218
-83 367 -126 505 -227 578 -419 35 -94 32 -258 -6 -356 -72 -182 -231 -295
-471 -333 -99 -16 -267 -11 -348 10 -175 44 -262 81 -382 161 -90 59 -107 87
-82 132 25 44 60 44 126 -1 293 -198 647 -228 876 -74 178 119 215 320 91 486
-53 69 -127 126 -239 179 -75 36 -282 111 -308 111 -22 0 -203 86 -258 123
-108 72 -204 193 -225 282 -36 163 9 317 129 443 75 79 172 130 295 158 57 12
268 12 342 -1z"/>
</g>
</svg>
